<?xml version="1.0" standalone="no"?>
<!DOCTYPE svg PUBLIC "-//W3C//DTD SVG 20010904//EN"
 "http://www.w3.org/TR/2001/REC-SVG-20010904/DTD/svg10.dtd">
<svg version="1.0" xmlns="http://www.w3.org/2000/svg" 
 width="200.000000pt" height="200.000000pt" viewBox="0 0 200.000000 200.000000"
 preserveAspectRatio="xMidYMid meet">

<g transform="translate(0.000000,200.000000) scale(0.100000,-0.100000)"
fill="white" stroke="none">
<path d="M302 1989 c-55 -16 -103 -77 -180 -230 l-73 -144 3 -740 3 -740 24
-38 c13 -21 42 -50 64 -65 l41 -27 816 0 816 0 41 27 c22 15 51 44 64 65 l24
38 0 750 0 750 -80 150 c-67 124 -88 155 -124 180 l-43 30 -681 2 c-413 1
-695 -2 -715 -8z m1343 -101 c56 -25 55 -14 55 -688 0 -674 1 -663 -55 -688
-19 -9 -187 -12 -646 -12 -673 0 -662 -1 -687 55 -18 40 -16 1261 2 1294 28
51 17 50 683 51 462 0 629 -3 648 -12z m-1368 -1374 c13 -17 39 -39 59 -49
l36 -17 -65 -67 c-79 -80 -130 -185 -99 -205 5 -3 71 58 148 135 104 105 145
139 164 139 21 0 0 -25 -134 -159 l-158 -158 23 -17 23 -16 -22 0 c-35 0 -77
25 -90 55 -9 19 -12 207 -12 736 l0 710 48 89 47 88 5 -616 5 -617 22 -31z
m1573 379 c0 -531 -3 -719 -12 -738 -16 -36 -57 -55 -120 -55 l-52 0 64 65 64
65 -18 36 -17 37 -102 -101 c-84 -83 -108 -102 -132 -102 -28 0 -22 8 94 124
l123 123 -16 32 c-9 17 -20 31 -24 31 -4 0 -77 -70 -163 -156 -118 -118 -161
-155 -177 -152 -18 2 7 32 140 171 99 103 157 171 150 176 -7 4 1 12 18 20 17
7 40 27 52 44 l23 32 3 620 3 620 49 -90 49 -90 1 -712z m-1310 -618 c-133
-133 -181 -175 -200 -175 -21 0 3 28 150 175 133 133 181 175 200 175 21 0 -3
-28 -150 -175z m170 0 c-133 -133 -181 -175 -200 -175 -21 0 3 28 150 175 133
133 181 175 200 175 21 0 -3 -28 -150 -175z m160 0 c-110 -110 -182 -175 -195
-175 -14 0 32 52 155 175 110 110 182 175 195 175 14 0 -32 -52 -155 -175z
m170 0 c-133 -133 -181 -175 -200 -175 -21 0 3 28 150 175 133 133 181 175
200 175 21 0 -3 -28 -150 -175z m175 0 c-147 -153 -171 -175 -199 -175 -29 0
-21 10 144 175 128 128 181 175 198 175 20 0 -6 -31 -143 -175z m260 93 c-262
-271 -258 -268 -290 -268 -28 0 -17 12 145 175 133 133 181 175 200 175 22 0
16 -9 -55 -82z"/>
<path d="M737 1342 c-10 -10 -17 -25 -17 -32 0 -7 57 -71 127 -142 98 -99 133
-128 153 -128 20 0 55 29 153 128 70 71 127 134 127 141 0 28 -22 51 -48 51
-21 0 -50 -23 -129 -102 l-103 -103 -103 103 c-106 106 -130 118 -160 84z"/>
<path d="M1759 133 l-24 -28 28 24 c15 14 27 26 27 28 0 8 -8 1 -31 -24z"/>
</g>
</svg>
